# Blender 4.2.3 LTS
# www.blender.org
mtllib map-3.mtl
o Cube
v 123.418625 0.963088 -133.230972
v 123.418625 -0.963088 -133.230972
v 123.418625 0.963088 133.230972
v 123.418625 -0.963088 133.230972
v -123.418625 0.963088 -133.230972
v -123.418625 -0.963088 -133.230972
v -123.418625 0.963088 133.230972
v -123.418625 -0.963088 133.230972
vn -0.0000 1.0000 -0.0000
vn -0.0000 -0.0000 1.0000
vn -1.0000 -0.0000 -0.0000
vn -0.0000 -1.0000 -0.0000
vn 1.0000 -0.0000 -0.0000
vn -0.0000 -0.0000 -1.0000
vt 14.291697 14.291697
vt -13.291697 14.291697
vt -13.291697 -13.291697
vt 14.291697 -13.291697
vt -75.877701 -0.000962
vt -75.877701 1.000962
vt 76.877701 1.000962
vt 76.877701 -0.000962
vt -1.730530 2.730530
vt 2.730530 2.730530
vt 2.730530 -1.730530
vt -1.730530 -1.730530
s 0
usemtl Material
f 1/1/1 5/2/1 7/3/1 3/4/1
f 4/5/2 3/6/2 7/7/2 8/8/2
f 8/8/3 7/7/3 5/6/3 6/5/3
f 6/9/4 2/10/4 4/11/4 8/12/4
f 2/5/5 1/6/5 3/7/5 4/8/5
f 6/8/6 5/7/6 1/6/6 2/5/6
