# Blender 4.2.3 LTS
# www.blender.org
mtllib sword.mtl
o Cube
v -0.712882 -1.111758 0.611798
v -0.712882 -1.111758 -0.813966
v -0.337541 1.035461 -0.585844
v 0.712882 -1.111758 0.611798
v 0.712882 -1.111758 -0.813966
v 0.337541 1.035461 -0.585844
v -0.607394 0.888242 0.506310
v -0.461406 0.432663 -0.562490
v 0.461406 0.432663 -0.562490
v 0.461406 0.432663 0.360322
v -0.337541 4.120719 -0.585844
v 0.337541 4.120719 -0.585844
v -1.732033 4.391500 -0.029517
v -1.732033 4.391500 -0.172650
v -1.732033 4.419491 -0.029517
v -1.732033 4.419491 -0.172650
v -1.127247 4.267938 0.383677
v -1.127247 4.267938 -0.585844
v -1.127247 4.543053 0.383677
v -1.127247 4.543053 -0.585844
v 0.409906 1.149182 -0.510989
v 0.409906 4.006998 -0.510989
v 0.409906 1.149182 0.308822
v -0.644620 -0.656178 -0.745703
v -0.644620 -0.656178 0.543536
v 0.644620 -0.656178 -0.745703
v 0.644620 -0.656178 0.543536
v -0.737320 -0.877631 -0.838403
v -0.737320 -0.877631 0.636236
v -0.461406 0.432663 0.360322
v -0.607394 0.888242 -0.708478
v 0.737320 -0.877631 -0.838403
v 0.607394 0.888242 -0.708478
v 0.737320 -0.877631 0.636236
v 0.607394 0.888242 0.506310
v -0.510487 -0.370846 -0.611570
v -0.510487 -0.370846 0.409403
v -0.392132 0.147330 0.291048
v -0.392132 0.147330 -0.493216
v 0.510487 -0.370846 -0.611570
v 0.392132 0.147330 -0.493216
v 0.510487 -0.370846 0.409403
v 0.392132 0.147330 0.291048
v 1.462068 4.256272 -0.582498
v 1.461874 4.543053 -0.584359
v 1.482839 4.282150 -0.562952
v 1.482495 4.281678 0.361152
v 1.483721 4.521097 -0.563060
v 1.482782 4.519033 0.362655
v 1.501058 4.331209 -0.519449
v 1.500903 4.330956 0.317487
v 1.487380 4.476820 -0.519315
v 1.486965 4.476267 0.317971
v 1.518842 4.402338 -0.451444
v 1.515780 4.369812 -0.483037
v 1.518842 4.402338 0.249277
v 1.515732 4.369724 0.280943
v 1.518842 4.408653 -0.451444
v 1.501835 4.440270 -0.482973
v 1.518842 4.408653 0.249277
v 1.501706 4.440133 0.281079
v 0.429671 4.021625 0.311554
v 0.409906 4.003087 0.303104
v 0.673416 4.441397 0.378146
v 1.452406 4.264008 0.379784
v 1.465762 4.260804 0.372331
v 1.465330 4.534594 0.375134
v 1.452335 4.526767 0.383293
v -0.331888 1.041115 0.383677
v -0.392095 1.045970 0.357504
v 0.392121 1.046118 0.357435
v 0.331888 1.041115 0.383677
v -0.391983 4.110860 0.357811
v -0.331888 4.115066 0.383677
v 0.331888 4.115066 0.383677
v 0.391644 4.111519 0.356832
v -0.409906 1.195556 -0.464616
v -0.407783 1.109628 -0.540926
v -0.416089 4.026717 -0.513570
v -0.409906 3.960624 -0.464616
v -0.409906 1.195556 0.262448
v -0.415932 1.104715 0.342476
v -0.409906 3.960624 0.262448
v -0.397485 4.022851 0.342771
v -0.014307 14.194500 -0.120142
v -0.667826 4.971383 -0.114733
v -0.668475 4.541343 0.358371
v -0.667828 4.971608 -0.112451
v -0.662466 4.544895 -0.584547
v -0.109156 14.033136 -0.117021
v -0.040030 14.094995 -0.185009
v -0.109156 14.033102 -0.117355
v -0.040172 14.110060 -0.047380
v 0.661068 4.974589 -0.085588
v 0.668245 4.540977 -0.560424
v 0.661274 4.976043 -0.100559
v 0.654082 4.499260 0.375304
v 0.085320 14.032742 -0.113088
v 0.016719 14.109734 -0.183988
v 0.014828 14.095951 -0.046672
v 0.085350 14.032953 -0.115279
v 0.028299 13.939672 -0.190678
v -0.049694 13.946732 -0.191211
v 0.525434 5.333099 -0.451572
v -0.521997 5.336185 -0.470589
v -0.012621 13.151606 -0.143619
v -0.006885 13.151106 -0.144014
vn -0.9749 0.2227 -0.0000
vn -0.0000 0.2227 -0.9749
vn 0.9749 0.2227 -0.0000
vn -0.0000 0.2227 0.9749
vn -0.0000 -1.0000 -0.0000
vn -0.0000 -0.0000 -1.0000
vn -0.6190 0.0027 -0.7854
vn -0.7458 0.6661 -0.0013
vn 0.7974 0.6035 -0.0000
vn -0.7168 0.0022 0.6973
vn 0.9981 -0.0615 0.0070
vn -0.0000 0.6035 -0.7974
vn 0.0081 -0.0860 0.9963
vn -0.0235 -0.0938 0.9953
vn 0.0472 -0.0745 -0.9961
vn 0.7800 -0.6257 -0.0000
vn -0.0229 0.9994 0.0263
vn 0.6902 0.7237 0.0031
vn -1.0000 -0.0000 -0.0000
vn -0.0093 -0.3663 -0.9304
vn 0.0062 0.5779 0.8161
vn -0.2002 -0.9798 -0.0000
vn -0.2002 0.9798 -0.0000
vn -0.5641 -0.0000 0.8257
vn -0.5641 -0.0000 -0.8257
vn -0.3198 -0.9475 0.0013
vn -0.0027 -0.5375 0.8432
vn 0.7190 -0.0000 -0.6950
vn -0.0000 -0.0000 1.0000
vn 1.0000 -0.0000 -0.0000
vn -0.0202 0.3292 -0.9441
vn 0.9432 0.0004 0.3322
vn -0.9946 -0.1038 -0.0000
vn -0.0000 -0.1038 -0.9946
vn 0.9946 -0.1038 -0.0000
vn -0.0000 -0.1038 0.9946
vn -0.9224 0.3861 -0.0000
vn -0.9523 -0.3052 -0.0000
vn -0.0000 0.3861 -0.9224
vn -0.0000 -0.3052 -0.9523
vn 0.9224 0.3861 -0.0000
vn 0.9523 -0.3052 -0.0000
vn -0.0000 0.3861 0.9224
vn -0.0000 -0.3052 0.9523
vn -0.9050 0.4254 -0.0000
vn -0.9718 -0.2359 -0.0000
vn -0.0000 0.4254 -0.9050
vn -0.0000 -0.2359 -0.9718
vn 0.9050 0.4254 -0.0000
vn 0.9718 -0.2359 -0.0000
vn -0.0000 0.4254 0.9050
vn -0.0000 -0.2359 0.9718
vn -0.9978 -0.0635 -0.0199
vn -0.0155 0.1637 0.9864
vn 0.0555 -0.0007 0.9985
vn 0.9677 0.0332 0.2499
vn 0.5698 -0.0068 0.8218
vn 0.9197 0.1181 0.3745
vn 0.9960 0.0897 0.0009
vn 0.9371 -0.3490 0.0001
vn 0.6921 -0.0036 -0.7218
vn 0.9279 0.3727 0.0005
vn 0.9342 -0.3568 -0.0000
vn 0.9690 0.0323 -0.2448
vn 0.9955 -0.0943 -0.0000
vn 0.8795 0.4759 0.0001
vn 0.9378 0.1709 0.3022
vn 0.9383 0.1707 -0.3008
vn 0.9205 0.1180 -0.3725
vn -0.0110 0.0431 0.9990
vn 0.5110 -0.0096 0.8596
vn 0.0934 -0.6056 0.7903
vn -0.2761 0.0014 0.9611
vn 0.2338 -0.9723 -0.0001
vn 0.0001 -0.9828 -0.1849
vn -0.0005 0.9894 -0.1455
vn 0.4046 0.0001 0.9145
vn -0.3970 -0.0000 0.9178
vn -0.0000 0.6035 0.7974
vn -0.9997 0.0220 -0.0050
vn -0.9989 0.0457 0.0118
vn -0.9995 -0.0016 0.0327
vn -0.9992 0.0032 0.0404
vn -0.1321 0.5651 -0.8144
vn -0.0450 -0.0482 -0.9978
vn 0.0178 0.0406 -0.9990
vn -1.0000 -0.0055 -0.0064
vn -0.7062 0.7037 -0.0778
vn -0.9837 0.0663 0.1669
vn -0.9814 0.0661 -0.1800
vn -0.0001 1.0000 0.0019
vn 0.9999 -0.0000 0.0152
vn 0.7063 0.7033 0.0804
vn 0.9791 0.0683 0.1916
vn 0.9855 0.0678 -0.1553
vn 0.0111 -0.1138 -0.9934
vn 0.1488 0.6189 0.7712
vn -0.9627 0.2687 -0.0304
vn 0.9485 0.3136 0.0445
vn 0.0092 0.0405 -0.9991
vn 0.0184 0.1393 -0.9901
vn 0.6728 -0.0129 -0.7397
vn -0.0037 -0.0594 -0.9982
vn -0.6580 -0.0152 -0.7528
vt 0.445431 -0.005584
vt 0.554569 0.006410
vt 0.554569 0.256410
vt 0.445431 0.244416
vt 0.554569 0.506410
vt 0.445431 0.494416
vt 0.554569 0.756377
vt 0.445431 0.744395
vt 0.554569 0.993623
vt 0.445431 1.005605
vt 0.160890 0.535890
vt 0.339110 0.535890
vt 0.339110 0.714110
vt 0.160890 0.714110
vt 0.707807 0.564405
vt 0.792193 0.564405
vt 0.792193 0.564405
vt 0.707807 0.564405
vt 0.806530 0.564405
vt 0.811027 0.564405
vt 0.818289 0.695208
vt 0.816550 0.556217
vt 0.875000 0.500000
vt 0.875000 0.750000
vt 0.689405 0.564405
vt 0.689405 0.685595
vt 0.625000 0.750000
vt 0.625000 0.500000
vt 0.802284 0.685595
vt 0.802231 0.685595
vt 0.804799 0.685595
vt 0.805859 0.685595
vt 0.810595 0.623641
vt 0.810595 0.623356
vt 0.810595 0.623641
vt 0.814471 0.554642
vt 0.808405 0.685595
vt 0.689402 0.685595
vt 0.664590 0.685595
vt 0.836408 0.685595
vt 0.689405 0.685595
vt 0.689405 0.685595
vt 0.810595 0.564405
vt 0.810595 0.564405
vt 0.689405 0.567025
vt 0.689405 0.683024
vt 0.689405 0.684560
vt 0.689405 0.567596
vt 0.689405 0.684231
vt 0.689405 0.684549
vt 0.689405 0.564591
vt 0.689405 0.684527
vt 0.689405 0.682967
vt 0.689405 0.567253
vt 0.810595 0.571049
vt 0.810595 0.678951
vt 0.810595 0.678951
vt 0.697705 0.685595
vt 0.808680 0.685595
vt 0.810362 0.564405
vt 0.810595 0.685595
vt 0.810595 0.564217
vt 0.810595 0.690130
vt 0.807318 0.564405
vt 0.791486 0.685595
vt 0.708514 0.685595
vt 0.791486 0.685595
vt 0.689405 0.684750
vt 0.697866 0.685595
vt 0.689221 0.685595
vt 0.807363 0.685595
vt 0.697640 0.685595
vt 0.697705 0.685595
vt 0.688544 0.685595
vt 0.125000 0.750000
vt 0.125000 0.500000
vt 0.375000 0.500000
vt 0.375000 0.750000
vt 0.407334 -0.002839
vt 0.407334 0.247161
vt 0.375000 0.250000
vt 0.375000 0.000000
vt 0.592666 0.253304
vt 0.592666 0.003304
vt 0.625000 0.000000
vt 0.625000 0.250000
vt 0.407334 0.497161
vt 0.592666 0.503304
vt 0.407334 0.747161
vt 0.592666 0.753304
vt 0.407334 1.002838
vt 0.375000 1.000000
vt 0.592666 0.996696
vt 0.625000 1.000000
vt 0.689405 0.625122
vt 0.689405 0.626993
vt 0.689405 0.625122
vt 0.689405 0.681017
vt 0.810595 0.685595
vt 0.689405 0.677410
vt 0.689405 0.677388
vt 0.689405 0.682984
vt 0.689405 0.683024
vt 0.689405 0.684870
vt 0.689405 0.684845
vt 0.689405 0.672780
vt 0.689405 0.672772
vt 0.689405 0.677382
vt 0.689405 0.572721
vt 0.689405 0.572617
vt 0.689405 0.677410
vt 0.689405 0.567149
vt 0.689405 0.567025
vt 0.689405 0.564405
vt 0.689405 0.668795
vt 0.689405 0.581205
vt 0.689405 0.581205
vt 0.689405 0.672770
vt 0.689405 0.577264
vt 0.689405 0.577230
vt 0.689405 0.672780
vt 0.689405 0.572684
vt 0.689405 0.572617
vt 0.689405 0.577230
vt 0.689405 0.577253
vt 0.836377 0.685595
vt 0.664371 0.685595
vt 0.726021 0.685595
vt 0.774899 0.685595
vt 0.689405 0.684752
vt 0.689405 0.684580
vt 0.689405 0.685595
vt 0.816447 0.696570
vt 0.810595 0.678740
vt 0.810595 0.571260
vt 0.810595 0.678740
vt 0.775896 0.564405
vt 0.760072 0.620916
vt 0.725463 0.564405
vt 0.668904 0.564405
vt 0.831467 0.564405
vt 0.752871 0.564405
vt 0.748438 0.564405
vt 0.810595 0.565133
vt 0.810595 0.682422
vt 0.810595 0.682428
vt 0.810595 0.565965
vt 0.810595 0.564569
vt 0.689405 0.567718
vt 0.689405 0.684202
vt 0.689405 0.684543
vt 0.689405 0.567572
vt 0.811068 0.564405
vt 0.836328 0.564405
vt 0.663618 0.564405
vt 0.742148 0.684921
vt 0.783878 0.685220
vt 0.724364 0.564405
vt 0.776841 0.564405
vt 0.775896 0.564405
vt 0.725463 0.564405
vt 0.663654 0.564405
vt 0.836712 0.564405
s 0
f 37/1/1 38/2/1 39/3/1 36/4/1
f 36/4/2 39/3/2 41/5/2 40/6/2
f 40/6/3 41/5/3 43/7/3 42/8/3
f 42/8/4 43/7/4 38/9/4 37/10/4
f 2/11/5 5/12/5 4/13/5 1/14/5
f 6/15/6 3/16/6 11/17/6 12/18/6
f 11/17/7 3/16/7 78/19/7 79/20/7
f 82/21/8 78/22/8 31/23/8 7/24/8
f 21/25/9 23/26/9 35/27/9 33/28/9
f 70/29/10 73/30/10 84/31/10 82/32/10
f 88/33/11 86/34/11 92/34/11 90/35/11
f 78/36/12 21/25/12 33/28/12 31/23/12
f 84/37/13 63/38/13 97/39/13 87/40/13
f 64/26/14 62/26/14 65/41/14 68/42/14
f 89/43/15 79/44/15 18/44/15 20/44/15
f 46/45/16 47/46/16 66/47/16 44/25/16
f 95/48/17 97/49/17 67/50/17 45/51/17
f 45/51/18 67/52/18 49/53/18 48/54/18
f 14/55/19 13/56/19 15/57/19 16/55/19
f 71/58/20 70/29/20 82/59/20 23/26/20
f 12/18/21 11/17/21 79/60/21 22/25/21
f 13/56/22 14/55/22 18/44/22 17/61/22
f 16/55/23 15/57/23 19/61/23 20/44/23
f 15/57/24 13/56/24 17/61/24 19/61/24
f 14/55/25 16/55/25 20/44/25 18/44/25
f 79/62/26 84/63/26 17/61/26 18/44/26
f 3/16/27 6/15/27 21/25/27 78/64/27
f 6/15/28 12/18/28 22/25/28 21/25/28
f 69/65/29 72/66/29 75/66/29 74/67/29
f 23/26/30 21/25/30 22/25/30 63/68/30
f 73/30/31 76/69/31 63/70/31 84/71/31
f 76/72/32 71/73/32 23/26/32 63/74/32
f 2/11/33 1/14/33 29/75/33 28/76/33
f 5/12/34 2/11/34 28/76/34 32/77/34
f 4/13/35 5/12/35 32/77/35 34/78/35
f 1/14/36 4/13/36 34/78/36 29/75/36
f 25/79/37 24/80/37 28/81/37 29/82/37
f 8/83/38 30/84/38 7/85/38 31/86/38
f 24/80/39 26/87/39 32/77/39 28/81/39
f 9/88/40 8/83/40 31/86/40 33/28/40
f 26/87/41 27/89/41 34/78/41 32/77/41
f 10/90/42 9/88/42 33/28/42 35/27/42
f 27/89/43 25/91/43 29/92/43 34/78/43
f 30/93/44 10/90/44 35/27/44 7/94/44
f 37/1/45 36/4/45 24/80/45 25/79/45
f 39/3/46 38/2/46 30/84/46 8/83/46
f 36/4/47 40/6/47 26/87/47 24/80/47
f 41/5/48 39/3/48 8/83/48 9/88/48
f 40/6/49 42/8/49 27/89/49 26/87/49
f 43/7/50 41/5/50 9/88/50 10/90/50
f 42/8/51 37/10/51 25/91/51 27/89/51
f 38/9/52 43/7/52 10/90/52 30/93/52
f 96/95/53 94/96/53 98/96/53 101/97/53
f 67/50/54 97/98/54 64/26/54 68/42/54
f 84/61/55 87/99/55 19/61/55 17/61/55
f 51/100/56 53/101/56 49/102/56 47/103/56
f 47/103/57 49/102/57 67/104/57 66/105/57
f 57/106/58 61/107/58 53/101/58 51/100/58
f 53/108/59 52/109/59 48/54/59 49/53/59
f 50/110/60 51/111/60 47/46/60 46/45/60
f 48/112/61 46/113/61 44/114/61 45/25/61
f 56/115/30 54/116/30 58/117/30 60/115/30
f 61/118/62 59/119/62 52/109/62 53/108/62
f 55/120/63 57/121/63 51/111/63 50/110/63
f 52/122/64 50/123/64 46/113/64 48/112/64
f 54/116/65 56/115/65 57/121/65 55/120/65
f 60/115/66 58/117/66 59/119/66 61/118/66
f 56/115/67 60/115/67 61/107/67 57/106/67
f 58/117/68 54/116/68 55/124/68 59/125/68
f 59/125/69 55/124/69 50/123/69 52/122/69
f 87/126/70 97/127/70 100/128/70 93/129/70
f 68/42/71 65/41/71 66/105/71 67/104/71
f 65/41/72 62/26/72 63/130/72 66/131/72
f 62/26/73 64/26/73 97/132/73 63/26/73
f 63/130/74 22/25/74 44/25/74 66/131/74
f 72/66/75 69/65/75 70/29/75 71/58/75
f 76/69/76 73/30/76 74/67/76 75/66/76
f 75/66/77 72/66/77 71/73/77 76/72/77
f 69/65/78 74/67/78 73/30/78 70/29/78
f 23/26/79 82/133/79 7/24/79 35/27/79
f 81/134/80 77/135/80 78/22/80 82/21/80
f 84/63/81 79/62/81 80/135/81 83/136/81
f 77/135/82 80/135/82 79/20/82 78/19/82
f 82/32/83 84/31/83 83/136/83 81/134/83
f 77/135/19 81/134/19 83/136/19 80/135/19
f 91/137/84 85/138/84 99/139/84
f 22/25/85 95/25/85 45/25/85 44/114/85
f 104/140/86 105/141/86 106/142/86 107/143/86
f 89/144/87 87/145/87 86/34/87 88/33/87
f 90/35/88 92/34/88 93/146/88 91/147/88
f 87/146/89 93/146/89 92/34/89 86/34/89
f 91/148/90 103/148/90 89/148/90 88/33/90 90/35/90
f 87/145/91 89/144/91 20/44/91 19/61/91
f 97/49/92 95/48/92 94/96/92 96/95/92
f 101/97/93 98/96/93 99/149/93 100/150/93
f 96/95/94 101/97/94 100/151/94 97/151/94
f 98/96/95 94/96/95 95/152/95 102/152/95 99/152/95
f 22/25/96 79/153/96 89/154/96 95/155/96
f 100/156/97 85/138/97 93/157/97
f 93/157/98 85/138/98 91/137/98
f 99/139/99 85/138/99 100/156/99
f 102/158/100 103/159/100 91/160/100 99/161/100
f 95/162/101 89/163/101 105/141/101 104/140/101
f 89/163/102 103/159/102 106/142/102 105/141/102
f 103/159/103 102/158/103 107/143/103 106/142/103
f 102/158/104 95/162/104 104/140/104 107/143/104
